<svg xmlns="http://www.w3.org/2000/svg" viewBox="0 0 128 128" role="img" aria-label="SonnetDB">
  <g fill="none" stroke="currentColor" stroke-linecap="round" stroke-linejoin="round">
    <path d="M42 42c2-13 12.5-22 26-22 14.5 0 26.2 10.8 27.6 24.5h3c11.2 0 19.7 8.2 19.7 18.7 0 7.2-4 13.2-10.2 16.2" stroke-width="8"/>
    <path d="M39.2 79.8C30.8 77.2 25 70.5 25 62.5c0-10 8.2-18 18.7-18h2.4" stroke-width="8"/>
    <ellipse cx="64" cy="62.5" rx="25" ry="8.3" stroke-width="7"/>
    <path d="M39 62.5v24.8c0 7 11.2 12.5 25 12.5s25-5.5 25-12.5V62.5" stroke-width="7"/>
    <path d="M39 80.5c6.3 5.1 16 7.1 25 7.1 9.4 0 19.5-2.4 25-7.6" stroke-width="6"/>
    <path d="M50 87h11.2l4.2-16.3 7.5 30.8 5.2-18.5h9" stroke-width="8"/>
    <path d="M23 91a50 50 0 0 1-10-16M21 36A50 50 0 0 1 38 20M105 35a50 50 0 0 1 12 18M114 82a50 50 0 0 1-12 20" stroke-width="7"/>
    <path d="M22 78l13-12M22 78l13 12" stroke-width="7"/>
    <circle cx="19" cy="78" r="5.5" fill="currentColor" stroke="none"/>
    <circle cx="39" cy="62" r="5.2" stroke-width="5"/>
    <circle cx="39" cy="94" r="5.2" stroke-width="5"/>
    <path d="M100 68l10-12 10 18-15 10z" stroke-width="7"/>
    <circle cx="110" cy="56" r="6" fill="currentColor" stroke="none"/>
    <circle cx="120" cy="74" r="6" fill="currentColor" stroke="none"/>
    <circle cx="105" cy="84" r="6" fill="currentColor" stroke="none"/>
  </g>
</svg>
