<svg xmlns="http://www.w3.org/2000/svg" width="1280" height="360" viewBox="0 0 1280 360" role="img" aria-labelledby="title desc">
  <title id="title">SonnetDB benchmark summary</title>
  <desc id="desc">Four bar charts showing embedded SonnetDB and SonnetDB Server benchmark results for insert throughput, range query latency, aggregate latency, and insert allocations.</desc>
  <style>
    .bg { fill: #ffffff; }
    .panel { fill: #fbfcfe; stroke: #d7dee8; stroke-width: 1; }
    .grid { stroke: #e7ecf2; stroke-width: 1; }
    .axis { stroke: #9aa7b5; stroke-width: 1; }
    .title { fill: #172033; font: 700 22px Arial, sans-serif; }
    .subtitle { fill: #5a6675; font: 13px Arial, sans-serif; }
    .panel-title { fill: #172033; font: 700 13px Arial, sans-serif; }
    .hint { fill: #657384; font: 11px Arial, sans-serif; }
    .label { fill: #314155; font: 10px Arial, sans-serif; }
    .value { fill: #172033; font: 700 10px Arial, sans-serif; }
    .legend { fill: #314155; font: 11px Arial, sans-serif; }
    .embedded { fill: #ff6b00; }
    .server { fill: #0f8f61; }
    .server-lp { fill: #42b883; }
    .server-json { fill: #35b6c1; }
    .sqlite { fill: #35b6c1; }
    .influx { fill: #7d8790; }
    .tdengine { fill: #7b61ff; }
    .sqlbatch { fill: #b84a4a; }
  </style>

  <rect class="bg" width="1280" height="360"/>
  <text class="title" x="24" y="32">SonnetDB benchmark summary</text>
  <text class="subtitle" x="24" y="54">PR #49 local run: i9-13900HX / Windows 11 / .NET 10.0.6 / Docker Desktop + WSL2. Relative comparison only.</text>
  <text class="subtitle" x="976" y="32">Run: eng/benchmarks/run-benchmarks</text>

  <g transform="translate(24 78)">
    <rect class="panel" width="286" height="246" rx="6"/>
    <text class="panel-title" x="14" y="24">Insert throughput</text>
    <text class="hint" x="14" y="40">M pts/s, higher is better</text>
    <line class="grid" x1="42" y1="70" x2="266" y2="70"/>
    <line class="grid" x1="42" y1="105" x2="266" y2="105"/>
    <line class="grid" x1="42" y1="140" x2="266" y2="140"/>
    <line class="grid" x1="42" y1="175" x2="266" y2="175"/>
    <line class="axis" x1="42" y1="210" x2="266" y2="210"/>
    <line class="axis" x1="42" y1="62" x2="42" y2="210"/>
    <rect class="embedded" x="58" y="70" width="26" height="140" rx="3"/>
    <rect class="server" x="96" y="142" width="26" height="68" rx="3"/>
    <rect class="server-lp" x="134" y="151" width="26" height="59" rx="3"/>
    <rect class="server-json" x="172" y="153" width="26" height="57" rx="3"/>
    <rect class="sqlbatch" x="210" y="206" width="26" height="4" rx="2"/>
    <text class="value" x="55" y="64">1.83</text>
    <text class="value" x="93" y="136">0.89</text>
    <text class="value" x="131" y="145">0.77</text>
    <text class="value" x="169" y="147">0.74</text>
    <text class="value" x="207" y="200">0.05</text>
    <text class="label" x="53" y="228">Emb</text>
    <text class="label" x="88" y="228">Srv Bulk</text>
    <text class="label" x="129" y="228">Srv LP</text>
    <text class="label" x="163" y="228">Srv JSON</text>
    <text class="label" x="204" y="228">Srv SQL</text>
  </g>

  <g transform="translate(328 78)">
    <rect class="panel" width="286" height="246" rx="6"/>
    <text class="panel-title" x="14" y="24">Range query latency</text>
    <text class="hint" x="14" y="40">ms for ~100k rows, lower is better</text>
    <line class="grid" x1="42" y1="70" x2="266" y2="70"/>
    <line class="grid" x1="42" y1="105" x2="266" y2="105"/>
    <line class="grid" x1="42" y1="140" x2="266" y2="140"/>
    <line class="grid" x1="42" y1="175" x2="266" y2="175"/>
    <line class="axis" x1="42" y1="210" x2="266" y2="210"/>
    <line class="axis" x1="42" y1="62" x2="42" y2="210"/>
    <rect class="embedded" x="58" y="206" width="26" height="4" rx="2"/>
    <rect class="server" x="96" y="180" width="26" height="30" rx="3"/>
    <rect class="sqlite" x="134" y="195" width="26" height="15" rx="3"/>
    <rect class="tdengine" x="172" y="191" width="26" height="19" rx="3"/>
    <rect class="influx" x="210" y="70" width="26" height="140" rx="3"/>
    <text class="value" x="53" y="201">6.7</text>
    <text class="value" x="91" y="174">88.4</text>
    <text class="value" x="129" y="189">44.5</text>
    <text class="value" x="167" y="185">56.3</text>
    <text class="value" x="203" y="64">411</text>
    <text class="label" x="53" y="228">Emb</text>
    <text class="label" x="90" y="228">Server</text>
    <text class="label" x="130" y="228">SQLite</text>
    <text class="label" x="176" y="228">TD</text>
    <text class="label" x="207" y="228">Influx</text>
  </g>

  <g transform="translate(632 78)">
    <rect class="panel" width="286" height="246" rx="6"/>
    <text class="panel-title" x="14" y="24">Aggregate latency</text>
    <text class="hint" x="14" y="40">ms for 1 min buckets, lower is better</text>
    <line class="grid" x1="42" y1="70" x2="266" y2="70"/>
    <line class="grid" x1="42" y1="105" x2="266" y2="105"/>
    <line class="grid" x1="42" y1="140" x2="266" y2="140"/>
    <line class="grid" x1="42" y1="175" x2="266" y2="175"/>
    <line class="axis" x1="42" y1="210" x2="266" y2="210"/>
    <line class="axis" x1="42" y1="62" x2="42" y2="210"/>
    <rect class="embedded" x="58" y="192" width="26" height="18" rx="3"/>
    <rect class="server" x="96" y="172" width="26" height="38" rx="3"/>
    <rect class="tdengine" x="134" y="184" width="26" height="26" rx="3"/>
    <rect class="influx" x="172" y="175" width="26" height="35" rx="3"/>
    <rect class="sqlite" x="210" y="70" width="26" height="140" rx="3"/>
    <text class="value" x="52" y="186">42.3</text>
    <text class="value" x="90" y="166">88.8</text>
    <text class="value" x="128" y="178">59.6</text>
    <text class="value" x="166" y="169">81.5</text>
    <text class="value" x="203" y="64">327</text>
    <text class="label" x="53" y="228">Emb</text>
    <text class="label" x="90" y="228">Server</text>
    <text class="label" x="138" y="228">TD</text>
    <text class="label" x="169" y="228">Influx</text>
    <text class="label" x="205" y="228">SQLite</text>
  </g>

  <g transform="translate(936 78)">
    <rect class="panel" width="286" height="246" rx="6"/>
    <text class="panel-title" x="14" y="24">Insert allocation</text>
    <text class="hint" x="14" y="40">MB allocated, lower is better</text>
    <line class="grid" x1="42" y1="70" x2="266" y2="70"/>
    <line class="grid" x1="42" y1="105" x2="266" y2="105"/>
    <line class="grid" x1="42" y1="140" x2="266" y2="140"/>
    <line class="grid" x1="42" y1="175" x2="266" y2="175"/>
    <line class="axis" x1="42" y1="210" x2="266" y2="210"/>
    <line class="axis" x1="42" y1="62" x2="42" y2="210"/>
    <rect class="embedded" x="58" y="97" width="26" height="113" rx="3"/>
    <rect class="server" x="96" y="203" width="26" height="7" rx="2"/>
    <rect class="server-lp" x="134" y="199" width="26" height="11" rx="2"/>
    <rect class="server-json" x="172" y="195" width="26" height="15" rx="3"/>
    <rect class="sqlbatch" x="210" y="70" width="26" height="140" rx="3"/>
    <text class="value" x="50" y="91">530</text>
    <text class="value" x="91" y="197">34</text>
    <text class="value" x="129" y="193">52</text>
    <text class="value" x="167" y="189">71</text>
    <text class="value" x="203" y="64">655</text>
    <text class="label" x="53" y="228">Emb</text>
    <text class="label" x="88" y="228">Srv Bulk</text>
    <text class="label" x="129" y="228">Srv LP</text>
    <text class="label" x="163" y="228">Srv JSON</text>
    <text class="label" x="204" y="228">Srv SQL</text>
  </g>

  <g transform="translate(24 334)">
    <rect class="embedded" x="0" y="-9" width="10" height="10" rx="2"/>
    <text class="legend" x="15" y="0">SonnetDB embedded</text>
    <rect class="server" x="132" y="-9" width="10" height="10" rx="2"/>
    <text class="legend" x="147" y="0">SonnetDB Server</text>
    <rect class="server-lp" x="260" y="-9" width="10" height="10" rx="2"/>
    <text class="legend" x="275" y="0">Server LP</text>
    <rect class="server-json" x="365" y="-9" width="10" height="10" rx="2"/>
    <text class="legend" x="380" y="0">Server JSON / SQLite</text>
    <rect class="tdengine" x="535" y="-9" width="10" height="10" rx="2"/>
    <text class="legend" x="550" y="0">TDengine</text>
    <rect class="influx" x="635" y="-9" width="10" height="10" rx="2"/>
    <text class="legend" x="650" y="0">InfluxDB</text>
    <rect class="sqlbatch" x="740" y="-9" width="10" height="10" rx="2"/>
    <text class="legend" x="755" y="0">Server SQL batch</text>
  </g>
</svg>
